<svg id="visual" viewBox="0 0 900 600" width="900" height="600" xmlns="http://www.w3.org/2000/svg" xmlns:xlink="http://www.w3.org/1999/xlink" version="1.1"><path d="M0 103L82 103L82 115L164 115L164 49L245 49L245 115L327 115L327 79L409 79L409 61L491 61L491 97L573 97L573 97L655 97L655 67L736 67L736 109L818 109L818 97L900 97L900 97L900 0L900 0L818 0L818 0L736 0L736 0L655 0L655 0L573 0L573 0L491 0L491 0L409 0L409 0L327 0L327 0L245 0L245 0L164 0L164 0L82 0L82 0L0 0Z" fill="#a8a89e"></path><path d="M0 205L82 205L82 223L164 223L164 367L245 367L245 337L327 337L327 181L409 181L409 157L491 157L491 349L573 349L573 235L655 235L655 271L736 271L736 289L818 289L818 229L900 229L900 229L900 95L900 95L818 95L818 107L736 107L736 65L655 65L655 95L573 95L573 95L491 95L491 59L409 59L409 77L327 77L327 113L245 113L245 47L164 47L164 113L82 113L82 101L0 101Z" fill="#bdbdb5"></path><path d="M0 331L82 331L82 283L164 283L164 439L245 439L245 457L327 457L327 277L409 277L409 247L491 247L491 451L573 451L573 385L655 385L655 385L736 385L736 433L818 433L818 373L900 373L900 331L900 227L900 227L818 227L818 287L736 287L736 269L655 269L655 233L573 233L573 347L491 347L491 155L409 155L409 179L327 179L327 335L245 335L245 365L164 365L164 221L82 221L82 203L0 203Z" fill="#d3d3cd"></path><path d="M0 421L82 421L82 367L164 367L164 481L245 481L245 529L327 529L327 373L409 373L409 349L491 349L491 517L573 517L573 469L655 469L655 445L736 445L736 505L818 505L818 451L900 451L900 391L900 329L900 371L818 371L818 431L736 431L736 383L655 383L655 383L573 383L573 449L491 449L491 245L409 245L409 275L327 275L327 455L245 455L245 437L164 437L164 281L82 281L82 329L0 329Z" fill="#e9e9e6"></path><path d="M0 601L82 601L82 601L164 601L164 601L245 601L245 601L327 601L327 601L409 601L409 601L491 601L491 601L573 601L573 601L655 601L655 601L736 601L736 601L818 601L818 601L900 601L900 601L900 389L900 449L818 449L818 503L736 503L736 443L655 443L655 467L573 467L573 515L491 515L491 347L409 347L409 371L327 371L327 527L245 527L245 479L164 479L164 365L82 365L82 419L0 419Z" fill="#ffffff"></path></svg>